0
SECTION
2
HEADER
9
$INSUNITS
70
4
9
$ACADVER
1
AC1014
9
$HANDSEED
5
FFFF
0
ENDSEC
0
SECTION
2
TABLES
0
TABLE
2
VPORT
5
8
100
AcDbSymbolTable
0
ENDTAB
0
TABLE
2
LTYPE
5
5
100
AcDbSymbolTable
0
LTYPE
5
14
100
AcDbSymbolTableRecord
100
AcDbLinetypeTableRecord
2
BYBLOCK
70
0
0
LTYPE
5
15
100
AcDbSymbolTableRecord
100
AcDbLinetypeTableRecord
2
BYLAYER
70
0
0
ENDTAB
0
TABLE
2
LAYER
5
2
100
AcDbSymbolTable
70
2
0
LAYER
5
50
100
AcDbSymbolTableRecord
100
AcDbLayerTableRecord
2
0
70
0
6
CONTINUOUS
0
ENDTAB
0
TABLE
2
STYLE
5
3
100
AcDbSymbolTable
70
1
0
STYLE
5
11
100
AcDbSymbolTableRecord
100
AcDbTextStyleTableRecord
2
STANDARD
70
0
0
ENDTAB
0
TABLE
2
VIEW
5
6
100
AcDbSymbolTable
70
0
0
ENDTAB
0
TABLE
2
UCS
5
7
100
AcDbSymbolTable
70
0
0
ENDTAB
0
TABLE
2
APPID
5
9
100
AcDbSymbolTable
70
2
0
APPID
5
12
100
AcDbSymbolTableRecord
100
AcDbRegAppTableRecord
2
ACAD
70
0
0
ENDTAB
0
TABLE
2
DIMSTYLE
5
A
100
AcDbSymbolTable
70
1
0
ENDTAB
0
TABLE
2
BLOCK_RECORD
5
1
100
AcDbSymbolTable
70
1
0
BLOCK_RECORD
5
1F
100
AcDbSymbolTableRecord
100
AcDbBlockTableRecord
2
*MODEL_SPACE
0
BLOCK_RECORD
5
1B
100
AcDbSymbolTableRecord
100
AcDbBlockTableRecord
2
*PAPER_SPACE
0
ENDTAB
0
ENDSEC
0
SECTION
2
BLOCKS
0
BLOCK
5
20
100
AcDbEntity
100
AcDbBlockBegin
2
*MODEL_SPACE
0
ENDBLK
5
21
100
AcDbEntity
100
AcDbBlockEnd
0
BLOCK
5
1C
100
AcDbEntity
100
AcDbBlockBegin
2
*PAPER_SPACE
0
ENDBLK
5
1D
100
AcDbEntity
100
AcDbBlockEnd
0
ENDSEC
0
SECTION
2
ENTITIES
0
LWPOLYLINE
5
100
100
AcDbEntity
8
0
100
AcDbPolyline
90
44
70
1
43
0.0
10
-295.74999999999994
20
0
10
-89.25
20
-1.1102230246251565e-15
10
-89.25
20
-3.5000000000000013
42
0.99999999999999989
10
-85.75
20
-3.5000000000000004
10
-85.75
20
-1.0418801089170114e-15
10
-18.000000000000007
20
2.2204460492503131e-15
10
-18.000000000000007
20
-17.999999999999996
10
0
20
-18
10
0
20
-85.75
10
-3.4999999999999787
20
-85.750000000000014
42
0.99999999999999989
10
-3.4999999999999787
20
-89.250000000000028
10
3.5527136788005009e-14
20
-89.25
10
7.1054273576010019e-14
20
-295.74999999999994
10
-3.4999999999999405
20
-295.74999999999989
42
0.99999999999999989
10
-3.4999999999999432
20
-299.25
10
3.5527136788005009e-14
20
-299.24999999999994
10
7.1054273576010019e-14
20
-366.99999999999989
10
-17.999999999999936
20
-366.99999999999989
10
-17.999999999999936
20
-384.99999999999994
10
-85.749999999999915
20
-384.99999999999994
10
-85.749999999999915
20
-381.49999999999989
42
0.99999999999999989
10
-89.249999999999943
20
-381.49999999999989
10
-89.249999999999943
20
-384.99999999999994
10
-295.75
20
-384.99999999999994
10
-295.75
20
-381.49999999999989
42
0.99999999999999989
10
-299.25
20
-381.49999999999989
10
-299.25
20
-384.99999999999994
10
-367
20
-384.99999999999994
10
-367
20
-366.99999999999989
10
-385
20
-366.99999999999989
10
-385
20
-299.24999999999994
10
-381.5
20
-299.24999999999989
42
0.99999999999999989
10
-381.5
20
-295.74999999999989
10
-385
20
-295.74999999999994
10
-385
20
-89.25
10
-381.49999999999989
20
-89.250000000000028
42
0.99999999999999989
10
-381.49999999999989
20
-85.750000000000014
10
-384.99999999999994
20
-85.75
10
-384.99999999999994
20
-18.000000000000007
10
-366.99999999999989
20
-18.000000000000007
10
-366.99999999999989
20
0
10
-299.24999999999994
20
0
10
-299.24999999999994
20
-3.5000000000000142
42
0.99999999999999989
10
-295.74999999999994
20
-3.5000000000000142
0
ENDSEC
0
SECTION
2
OBJECTS
0
DICTIONARY
5
C
100
AcDbDictionary
3
ACAD_GROUP
350
D
3
ACAD_MLINESTYLE
350
17
0
DICTIONARY
5
D
100
AcDbDictionary
0
DICTIONARY
5
1A
330
C
100
AcDbDictionary
0
DICTIONARY
5
17
100
AcDbDictionary
0
ENDSEC
0
EOF
